<svg width="24" height="25" viewBox="0 0 24 25" fill="none" xmlns="http://www.w3.org/2000/svg">
<path d="M18.9999 10.2041V9.5C18.9999 5.63401 15.8659 2.5 11.9999 2.5C8.13395 2.5 4.99994 5.63401 4.99994 9.5V10.2041C4.99994 11.0491 4.74982 11.8752 4.28111 12.5783L3.1325 14.3012C2.08337 15.8749 2.8843 18.0139 4.70901 18.5116C9.48246 19.8134 14.5174 19.8134 19.2909 18.5116C21.1156 18.0139 21.9165 15.8749 20.8674 14.3012L19.7188 12.5783C19.2501 11.8752 18.9999 11.0491 18.9999 10.2041Z" stroke="#212564" stroke-width="1.5"/>
<path opacity="0.5" d="M7.5 19.5C8.15503 21.2478 9.92246 22.5 12 22.5C14.0775 22.5 15.845 21.2478 16.5 19.5" stroke="#212564" stroke-width="1.5" stroke-linecap="round"/>
</svg>
