<svg width="20" height="20" viewBox="0 0 20 20" fill="none" xmlns="http://www.w3.org/2000/svg">
<path d="M1.66669 9.99998C1.66669 6.85728 1.66669 5.28593 2.643 4.30962C3.61931 3.33331 5.19066 3.33331 8.33335 3.33331H11.6667C14.8094 3.33331 16.3807 3.33331 17.357 4.30962C18.3334 5.28593 18.3334 6.85728 18.3334 9.99998V11.6666C18.3334 14.8093 18.3334 16.3807 17.357 17.357C16.3807 18.3333 14.8094 18.3333 11.6667 18.3333H8.33335C5.19066 18.3333 3.61931 18.3333 2.643 17.357C1.66669 16.3807 1.66669 14.8093 1.66669 11.6666V9.99998Z" stroke="white" stroke-width="1.5"/>
<path opacity="0.5" d="M5.83331 3.33331V2.08331" stroke="white" stroke-width="1.5" stroke-linecap="round"/>
<path opacity="0.5" d="M14.1667 3.33331V2.08331" stroke="white" stroke-width="1.5" stroke-linecap="round"/>
<path opacity="0.5" d="M2.08331 7.5H17.9166" stroke="white" stroke-width="1.5" stroke-linecap="round"/>
<path d="M15 14.1667C15 14.6269 14.6269 15 14.1666 15C13.7064 15 13.3333 14.6269 13.3333 14.1667C13.3333 13.7064 13.7064 13.3333 14.1666 13.3333C14.6269 13.3333 15 13.7064 15 14.1667Z" fill="white"/>
<path d="M15 10.8333C15 11.2936 14.6269 11.6667 14.1666 11.6667C13.7064 11.6667 13.3333 11.2936 13.3333 10.8333C13.3333 10.3731 13.7064 10 14.1666 10C14.6269 10 15 10.3731 15 10.8333Z" fill="white"/>
<path d="M10.8334 14.1667C10.8334 14.6269 10.4603 15 10 15C9.53978 15 9.16669 14.6269 9.16669 14.1667C9.16669 13.7064 9.53978 13.3333 10 13.3333C10.4603 13.3333 10.8334 13.7064 10.8334 14.1667Z" fill="white"/>
<path d="M10.8334 10.8333C10.8334 11.2936 10.4603 11.6667 10 11.6667C9.53978 11.6667 9.16669 11.2936 9.16669 10.8333C9.16669 10.3731 9.53978 10 10 10C10.4603 10 10.8334 10.3731 10.8334 10.8333Z" fill="white"/>
<path d="M6.66667 14.1667C6.66667 14.6269 6.29357 15 5.83333 15C5.3731 15 5 14.6269 5 14.1667C5 13.7064 5.3731 13.3333 5.83333 13.3333C6.29357 13.3333 6.66667 13.7064 6.66667 14.1667Z" fill="white"/>
<path d="M6.66667 10.8333C6.66667 11.2936 6.29357 11.6667 5.83333 11.6667C5.3731 11.6667 5 11.2936 5 10.8333C5 10.3731 5.3731 10 5.83333 10C6.29357 10 6.66667 10.3731 6.66667 10.8333Z" fill="white"/>
</svg>
