<svg width="22" height="22" viewBox="0 0 22 22" fill="none" xmlns="http://www.w3.org/2000/svg">
<path d="M15.5835 12.8334C16.0898 12.8334 16.5002 12.4229 16.5002 11.9167C16.5002 11.4104 16.0898 11 15.5835 11C15.0772 11 14.6668 11.4104 14.6668 11.9167C14.6668 12.4229 15.0772 12.8334 15.5835 12.8334Z" fill="#1C274C"/>
<path d="M15.5835 16.5C16.0898 16.5 16.5002 16.0896 16.5002 15.5834C16.5002 15.0771 16.0898 14.6667 15.5835 14.6667C15.0772 14.6667 14.6668 15.0771 14.6668 15.5834C14.6668 16.0896 15.0772 16.5 15.5835 16.5Z" fill="#1C274C"/>
<path d="M11.9168 11.9167C11.9168 12.4229 11.5064 12.8334 11.0002 12.8334C10.4939 12.8334 10.0835 12.4229 10.0835 11.9167C10.0835 11.4104 10.4939 11 11.0002 11C11.5064 11 11.9168 11.4104 11.9168 11.9167Z" fill="#1C274C"/>
<path d="M11.9168 15.5834C11.9168 16.0896 11.5064 16.5 11.0002 16.5C10.4939 16.5 10.0835 16.0896 10.0835 15.5834C10.0835 15.0771 10.4939 14.6667 11.0002 14.6667C11.5064 14.6667 11.9168 15.0771 11.9168 15.5834Z" fill="#1C274C"/>
<path d="M6.41683 12.8334C6.92309 12.8334 7.3335 12.4229 7.3335 11.9167C7.3335 11.4104 6.92309 11 6.41683 11C5.91057 11 5.50016 11.4104 5.50016 11.9167C5.50016 12.4229 5.91057 12.8334 6.41683 12.8334Z" fill="#1C274C"/>
<path d="M6.41683 16.5C6.92309 16.5 7.3335 16.0896 7.3335 15.5834C7.3335 15.0771 6.92309 14.6667 6.41683 14.6667C5.91057 14.6667 5.50016 15.0771 5.50016 15.5834C5.50016 16.0896 5.91057 16.5 6.41683 16.5Z" fill="#1C274C"/>
<path fill-rule="evenodd" clip-rule="evenodd" d="M6.41683 1.60419C6.79653 1.60419 7.10433 1.91199 7.10433 2.29169V2.99085C7.71116 2.97917 8.37971 2.97918 9.115 2.97919H12.8852C13.6205 2.97918 14.2892 2.97917 14.896 2.99085V2.29169C14.896 1.91199 15.2038 1.60419 15.5835 1.60419C15.9632 1.60419 16.271 1.91199 16.271 2.29169V3.04985C16.5093 3.06802 16.7349 3.09085 16.9484 3.11956C18.0232 3.26405 18.893 3.56849 19.579 4.25449C20.265 4.94049 20.5695 5.81036 20.714 6.88508C20.8544 7.92935 20.8543 9.26367 20.8543 10.9483V12.8851C20.8543 14.5697 20.8544 15.904 20.714 16.9483C20.5695 18.023 20.265 18.8929 19.579 19.5789C18.893 20.2649 18.0232 20.5693 16.9484 20.7138C15.9042 20.8542 14.5698 20.8542 12.8852 20.8542H9.11512C7.43052 20.8542 6.09616 20.8542 5.05189 20.7138C3.97717 20.5693 3.1073 20.2649 2.4213 19.5789C1.7353 18.8929 1.43086 18.023 1.28637 16.9483C1.14597 15.904 1.14598 14.5697 1.146 12.8851V10.9483C1.14598 9.26369 1.14597 7.92936 1.28637 6.88508C1.43086 5.81036 1.7353 4.94049 2.4213 4.25449C3.1073 3.56849 3.97717 3.26405 5.05189 3.11956C5.26541 3.09085 5.49105 3.06802 5.72933 3.04985V2.29169C5.72933 1.91199 6.03713 1.60419 6.41683 1.60419ZM5.23511 4.4823C4.31286 4.60629 3.78152 4.83882 3.39357 5.22677C3.00563 5.61471 2.7731 6.14605 2.64911 7.0683C2.62811 7.22449 2.61055 7.38891 2.59587 7.56252H19.4045C19.3898 7.38891 19.3722 7.22449 19.3512 7.0683C19.2272 6.14605 18.9947 5.61471 18.6068 5.22677C18.2188 4.83882 17.6875 4.60629 16.7652 4.4823C15.8232 4.35565 14.5814 4.35419 12.8335 4.35419H9.16683C7.41891 4.35419 6.17713 4.35565 5.23511 4.4823ZM2.521 11C2.521 10.2172 2.52129 9.53585 2.53299 8.93752H19.4673C19.479 9.53585 19.4793 10.2172 19.4793 11V12.8334C19.4793 14.5813 19.4779 15.823 19.3512 16.7651C19.2272 17.6873 18.9947 18.2187 18.6068 18.6066C18.2188 18.9946 17.6875 19.2271 16.7652 19.3511C15.8232 19.4777 14.5814 19.4792 12.8335 19.4792H9.16683C7.41891 19.4792 6.17713 19.4777 5.23511 19.3511C4.31286 19.2271 3.78152 18.9946 3.39357 18.6066C3.00563 18.2187 2.7731 17.6873 2.64911 16.7651C2.52246 15.823 2.521 14.5813 2.521 12.8334V11Z" fill="#1C274C"/>
</svg>
