<svg width="16" height="16" viewBox="0 0 16 16" fill="none" xmlns="http://www.w3.org/2000/svg">
<path d="M9.33331 1.33334C9.33331 1.33334 10.8 1.46668 12.6666 3.33334C14.5333 5.20001 14.6666 6.66668 14.6666 6.66668" stroke="#595959" stroke-width="0.8" stroke-linecap="round"/>
<path d="M9.47137 3.69043C9.47137 3.69043 10.1313 3.87899 11.1213 4.86894C12.1112 5.85889 12.2998 6.51886 12.2998 6.51886" stroke="#595959" stroke-width="0.8" stroke-linecap="round"/>
<path opacity="0.5" d="M6.69175 3.5441L7.12442 4.31939C7.51489 5.01905 7.35814 5.93688 6.74316 6.55186C6.74316 6.55186 5.9972 7.29782 7.3497 8.65031C8.70217 10.0028 9.44815 9.25685 9.44815 9.25685C10.0631 8.64187 10.981 8.48512 11.6806 8.87559L12.4559 9.30826C13.5124 9.89787 13.6372 11.3795 12.7085 12.3081C12.1505 12.8661 11.467 13.3003 10.7113 13.329C9.4392 13.3772 7.27887 13.0552 5.11182 10.8882C2.94477 8.72114 2.62283 6.56081 2.67105 5.28871C2.6997 4.53306 3.13389 3.84948 3.69189 3.29148C4.62052 2.36284 6.10214 2.48761 6.69175 3.5441Z" stroke="#595959" stroke-width="0.8" stroke-linecap="round"/>
</svg>
