<svg width="22" height="22" viewBox="0 0 22 22" fill="none" xmlns="http://www.w3.org/2000/svg">
<path d="M12.8335 1.83334C12.8335 1.83334 14.8502 2.01668 17.4168 4.58334C19.9835 7.15001 20.1668 9.16668 20.1668 9.16668" stroke="#1E293B" stroke-width="1.5" stroke-linecap="round"/>
<path d="M13.0229 5.07434C13.0229 5.07434 13.9304 5.33361 15.2916 6.69479C16.6528 8.05597 16.912 8.96343 16.912 8.96343" stroke="#1E293B" stroke-width="1.5" stroke-linecap="round"/>
<path d="M9.20096 4.87315L9.79589 5.93916C10.3328 6.90119 10.1173 8.16321 9.27165 9.00881C9.27165 9.00881 8.24597 10.0345 10.1056 11.8942C11.9653 13.7538 12.991 12.7282 12.991 12.7282C13.8366 11.8826 15.0986 11.667 16.0607 12.2039L17.1267 12.7989C18.5794 13.6096 18.7509 15.6468 17.474 16.9237C16.7068 17.6909 15.7669 18.2879 14.7278 18.3273C12.9787 18.3936 10.0083 17.951 7.02857 14.9713C4.04887 11.9916 3.6062 9.02111 3.67251 7.27199C3.7119 6.23296 4.30891 5.29304 5.07616 4.52579C6.35303 3.24891 8.39025 3.42047 9.20096 4.87315Z" stroke="#1E293B" stroke-width="1.5" stroke-linecap="round"/>
</svg>
