<svg width="40" height="41" viewBox="0 0 40 41" fill="none" xmlns="http://www.w3.org/2000/svg">
<path d="M15.8333 3.83337C14.4526 3.83337 13.3333 4.95266 13.3333 6.33337V8.00004C13.3333 9.38075 14.4526 10.5 15.8333 10.5H24.1667C25.5474 10.5 26.6667 9.38075 26.6667 8.00004V6.33337C26.6667 4.95266 25.5474 3.83337 24.1667 3.83337H15.8333Z" fill="#0084FF"/>
<path fill-rule="evenodd" clip-rule="evenodd" d="M10.8333 7.22773C8.73682 7.34536 7.4133 7.67944 6.46447 8.62828C5 10.0927 5 12.4498 5 17.1638V27.1638C5 31.8779 5 34.2349 6.46447 35.6993C7.92893 37.1638 10.286 37.1638 15 37.1638H25C29.714 37.1638 32.0711 37.1638 33.5355 35.6993C35 34.2349 35 31.8779 35 27.1638V17.1638C35 12.4498 35 10.0927 33.5355 8.62828C32.5867 7.67944 31.2632 7.34536 29.1667 7.22773V8.00004C29.1667 10.7615 26.9281 13 24.1667 13H15.8333C13.0719 13 10.8333 10.7615 10.8333 8.00004V7.22773ZM25.8529 21.4139C26.3576 20.9428 26.3849 20.1518 25.9138 19.6471C25.4428 19.1425 24.6518 19.1152 24.1471 19.5862L17.8571 25.4569L15.8529 23.5862C15.3482 23.1152 14.5572 23.1425 14.0862 23.6471C13.6151 24.1518 13.6424 24.9428 14.1471 25.4139L17.0042 28.0805C17.4845 28.5288 18.2298 28.5288 18.71 28.0805L25.8529 21.4139Z" fill="#0084FF"/>
</svg>
