<svg width="22" height="24" viewBox="0 0 22 24" fill="none" xmlns="http://www.w3.org/2000/svg">
<path d="M13.6953 5.74016e-07C12.3278 -2.13093e-05 11.2254 -3.89367e-05 10.3585 0.126197C9.45836 0.257259 8.70048 0.537642 8.09857 1.18952C7.57363 1.75803 7.30839 2.45665 7.16916 3.27756C7.03387 4.07526 7.00799 5.05147 7.00196 6.22278C6.99966 6.67137 7.33357 7.03704 7.74778 7.03954C8.16199 7.04204 8.49964 6.68041 8.50194 6.23182C8.50803 5.04755 8.53643 4.20813 8.64448 3.57105C8.74859 2.95719 8.91577 2.60189 9.15923 2.33823C9.43599 2.03849 9.82456 1.84307 10.5583 1.73622C11.3137 1.62624 12.3148 1.62451 13.7502 1.62451H14.7502C16.1856 1.62451 17.1867 1.62624 17.9421 1.73622C18.6759 1.84307 19.0644 2.03849 19.3412 2.33823C19.618 2.63796 19.7984 3.05879 19.8971 3.85347C19.9986 4.67153 20.0002 5.75574 20.0002 7.31031V15.9744C20.0002 17.5289 19.9986 18.6131 19.8971 19.4312C19.7984 20.2259 19.618 20.6467 19.3412 20.9464C19.0644 21.2462 18.6759 21.4416 17.9421 21.5485C17.1867 21.6584 16.1856 21.6602 14.7502 21.6602H13.7502C12.3148 21.6602 11.3137 21.6584 10.5583 21.5485C9.82456 21.4416 9.43599 21.2462 9.15923 20.9464C8.91577 20.6828 8.74859 20.3275 8.64448 19.7136C8.53643 19.0765 8.50803 18.2371 8.50194 17.0529C8.49964 16.6043 8.16199 16.2426 7.74778 16.2451C7.33357 16.2476 6.99966 16.6133 7.00196 17.0619C7.00799 18.2332 7.03387 19.2094 7.16916 20.0071C7.30839 20.828 7.57363 21.5266 8.09857 22.0952C8.70048 22.747 9.45836 23.0274 10.3585 23.1585C11.2254 23.2847 12.3278 23.2847 13.6953 23.2847H14.8051C16.1727 23.2847 17.275 23.2847 18.142 23.1585C19.0421 23.0274 19.7999 22.747 20.4019 22.0952C21.0038 21.4433 21.2627 20.6225 21.3837 19.6477C21.5003 18.7087 21.5002 17.5149 21.5002 16.0338V7.25088C21.5002 5.76977 21.5003 4.57595 21.3837 3.63701C21.2627 2.66219 21.0038 1.8414 20.4019 1.18952C19.7999 0.537642 19.0421 0.257259 18.142 0.126197C17.275 -3.89367e-05 16.1727 -2.13093e-05 14.8051 5.74016e-07H13.6953Z" fill="white"/>
<path d="M13.75 10.8301C14.1642 10.8301 14.5 11.1937 14.5 11.6423C14.5 12.0909 14.1642 12.4546 13.75 12.4546H2.77744L4.73809 14.2747C5.05259 14.5666 5.08901 15.0794 4.81944 15.42C4.54988 15.7606 4.0764 15.8 3.76191 15.5081L0.261907 12.259C0.0956715 12.1047 0 11.8795 0 11.6423C0 11.4052 0.0956715 11.1799 0.261906 11.0256L3.76191 7.7766C4.0764 7.48466 4.54988 7.5241 4.81944 7.8647C5.08901 8.2053 5.05259 8.71808 4.73809 9.01002L2.77744 10.8301H13.75Z" fill="white"/>
</svg>
