<svg width="24" height="24" viewBox="0 0 24 24" fill="none" xmlns="http://www.w3.org/2000/svg">
<path fill-rule="evenodd" clip-rule="evenodd" d="M0 12C0 6.34315 0 3.51472 1.75736 1.75736C3.51472 0 6.34315 0 12 0C17.6569 0 20.4853 0 22.2426 1.75736C24 3.51472 24 6.34315 24 12C24 17.6569 24 20.4853 22.2426 22.2426C20.4853 24 17.6569 24 12 24C6.34315 24 3.51472 24 1.75736 22.2426C0 20.4853 0 17.6569 0 12ZM12 18.9C12.4971 18.9 12.9 18.4971 12.9 18V11.7728L14.9636 13.8364C15.3151 14.1879 15.8849 14.1879 16.2364 13.8364C16.5879 13.4849 16.5879 12.9151 16.2364 12.5636L12.6364 8.9636C12.4676 8.79482 12.2387 8.7 12 8.7C11.7613 8.7 11.5324 8.79482 11.3636 8.9636L7.7636 12.5636C7.41213 12.9151 7.41213 13.4849 7.7636 13.8364C8.11508 14.1879 8.68492 14.1879 9.0364 13.8364L11.1 11.7728V18C11.1 18.4971 11.5029 18.9 12 18.9ZM7.2 6.9C6.70294 6.9 6.3 6.49706 6.3 6C6.3 5.50294 6.70294 5.1 7.2 5.1H16.8C17.2971 5.1 17.7 5.50294 17.7 6C17.7 6.49706 17.2971 6.9 16.8 6.9H7.2Z" fill="#1C274C"/>
</svg>
