<svg width="31" height="33" viewBox="0 0 31 33" fill="none" xmlns="http://www.w3.org/2000/svg">
<path fill-rule="evenodd" clip-rule="evenodd" d="M4.09629 7.11091C2.58301 8.72183 2.58301 11.3146 2.58301 16.5C2.58301 21.6854 2.58301 24.2782 4.09629 25.8891C5.60957 27.5 8.04516 27.5 12.9163 27.5H18.083C22.9542 27.5 25.3898 27.5 26.9031 25.8891C28.4163 24.2782 28.4163 21.6854 28.4163 16.5C28.4163 11.3146 28.4163 8.72183 26.9031 7.11091C25.3898 5.5 22.9542 5.5 18.083 5.5H12.9163C8.04516 5.5 5.60957 5.5 4.09629 7.11091ZM23.9939 10.3398C24.3364 10.7773 24.2809 11.4276 23.8699 11.7922L21.0327 14.309C19.8878 15.3247 18.9599 16.1479 18.1409 16.7086C17.2878 17.2927 16.4569 17.6617 15.4997 17.6617C14.5424 17.6617 13.7116 17.2927 12.8584 16.7086C12.0394 16.1479 11.1115 15.3247 9.96663 14.309L7.1295 11.7922C6.71848 11.4276 6.66294 10.7773 7.00546 10.3398C7.34797 9.90227 7.95883 9.84316 8.36985 10.2078L11.1584 12.6815C12.3635 13.7505 13.2002 14.4903 13.9065 14.9739C14.5903 15.4421 15.054 15.5992 15.4997 15.5992C15.9454 15.5992 16.4091 15.4421 17.0928 14.9739C17.7992 14.4903 18.6358 13.7505 19.8409 12.6815L22.6295 10.2078C23.0405 9.84316 23.6514 9.90227 23.9939 10.3398Z" fill="#1C274C"/>
</svg>
