<svg width="25" height="24" viewBox="0 0 25 24" fill="none" xmlns="http://www.w3.org/2000/svg">
<mask id="path-1-inside-1_57_82" fill="white">
<path d="M5 9.24998H20V10.75H5V9.24998ZM8.375 14H16.625V15.5H8.375V14ZM10.625 18.75H14.375V20.25H10.625V18.75ZM2.75 4.5H22.25V6H2.75V4.5Z"/>
</mask>
<path d="M5 9.24998H20V10.75H5V9.24998ZM8.375 14H16.625V15.5H8.375V14ZM10.625 18.75H14.375V20.25H10.625V18.75ZM2.75 4.5H22.25V6H2.75V4.5Z" fill="#E4A951"/>
<path d="M5 9.24998V7.24998H3V9.24998H5ZM20 9.24998H22V7.24998H20V9.24998ZM20 10.75V12.75H22V10.75H20ZM5 10.75H3V12.75H5V10.75ZM8.375 14V12H6.375V14H8.375ZM16.625 14H18.625V12H16.625V14ZM16.625 15.5V17.5H18.625V15.5H16.625ZM8.375 15.5H6.375V17.5H8.375V15.5ZM10.625 18.75V16.75H8.625V18.75H10.625ZM14.375 18.75H16.375V16.75H14.375V18.75ZM14.375 20.25V22.25H16.375V20.25H14.375ZM10.625 20.25H8.625V22.25H10.625V20.25ZM2.75 4.5V2.5H0.75V4.5H2.75ZM22.25 4.5H24.25V2.5H22.25V4.5ZM22.25 6V8H24.25V6H22.25ZM2.75 6H0.75V8H2.75V6ZM5 9.24998V11.25H20V9.24998V7.24998H5V9.24998ZM20 9.24998H18V10.75H20H22V9.24998H20ZM20 10.75V8.74998H5V10.75V12.75H20V10.75ZM5 10.75H7V9.24998H5H3V10.75H5ZM8.375 14V16H16.625V14V12H8.375V14ZM16.625 14H14.625V15.5H16.625H18.625V14H16.625ZM16.625 15.5V13.5H8.375V15.5V17.5H16.625V15.5ZM8.375 15.5H10.375V14H8.375H6.375V15.5H8.375ZM10.625 18.75V20.75H14.375V18.75V16.75H10.625V18.75ZM14.375 18.75H12.375V20.25H14.375H16.375V18.75H14.375ZM14.375 20.25V18.25H10.625V20.25V22.25H14.375V20.25ZM10.625 20.25H12.625V18.75H10.625H8.625V20.25H10.625ZM2.75 4.5V6.5H22.25V4.5V2.5H2.75V4.5ZM22.25 4.5H20.25V6H22.25H24.25V4.5H22.25ZM22.25 6V4H2.75V6V8H22.25V6ZM2.75 6H4.75V4.5H2.75H0.75V6H2.75Z" fill="#64748B" mask="url(#path-1-inside-1_57_82)"/>
</svg>
