<svg width="20" height="21" viewBox="0 0 20 21" fill="none" xmlns="http://www.w3.org/2000/svg">
<path opacity="0.5" d="M18.3333 9.25002V10.5C18.3333 14.4284 18.3333 16.3926 17.1129 17.613C15.8925 18.8334 13.9283 18.8334 9.99996 18.8334C6.07159 18.8334 4.1074 18.8334 2.88701 17.613C1.66663 16.3926 1.66663 14.4284 1.66663 10.5C1.66663 6.57165 1.66663 4.60746 2.88701 3.38708C4.1074 2.16669 6.07159 2.16669 9.99996 2.16669H11.25" stroke="#1C274C" stroke-width="1.5" stroke-linecap="round"/>
<path d="M14.4173 2.83856L13.8767 3.37924L8.90594 8.34996C8.56926 8.68664 8.40092 8.85498 8.25615 9.04059C8.08537 9.25954 7.93896 9.49645 7.81949 9.74712C7.71822 9.95961 7.64294 10.1855 7.49237 10.6372L7.01031 12.0834L6.69839 13.0191C6.62429 13.2414 6.68215 13.4865 6.84783 13.6522C7.01351 13.8178 7.25858 13.8757 7.48087 13.8016L8.41663 13.4897L9.86281 13.0076C10.3145 12.857 10.5404 12.7818 10.7529 12.6805C11.0035 12.561 11.2404 12.4146 11.4594 12.2438C11.645 12.0991 11.8133 11.9307 12.15 11.594L17.1207 6.62332L17.6614 6.08264C18.5573 5.18681 18.5573 3.73438 17.6614 2.83856C16.7656 1.94273 15.3132 1.94273 14.4173 2.83856Z" stroke="#1C274C" stroke-width="1.5"/>
<path opacity="0.5" d="M13.8769 3.37921C13.8769 3.37921 13.9444 4.52816 14.9582 5.54193C15.972 6.5557 17.1209 6.62329 17.1209 6.62329M8.41682 13.4896L7.0105 12.0833" stroke="#1C274C" stroke-width="1.5"/>
</svg>
