<svg width="20" height="20" viewBox="0 0 20 20" fill="none" xmlns="http://www.w3.org/2000/svg">
<path d="M11.6667 1.66669C11.6667 1.66669 13.5 1.83335 15.8334 4.16669C18.1667 6.50002 18.3334 8.33335 18.3334 8.33335" stroke="white" stroke-width="1.5" stroke-linecap="round"/>
<path d="M11.8392 4.61304C11.8392 4.61304 12.6641 4.84874 13.9016 6.08618C15.139 7.32361 15.3747 8.14857 15.3747 8.14857" stroke="white" stroke-width="1.5" stroke-linecap="round"/>
<path d="M8.36464 4.43012L8.90548 5.39923C9.39357 6.2738 9.19763 7.42109 8.4289 8.18982C8.4289 8.18982 7.49646 9.12227 9.18707 10.8129C10.8777 12.5035 11.8101 11.5711 11.8101 11.5711C12.5789 10.8023 13.7262 10.6064 14.6007 11.0945L15.5698 11.6353C16.8904 12.3723 17.0464 14.2243 15.8856 15.3851C15.1881 16.0826 14.3336 16.6254 13.3891 16.6612C11.799 16.7215 9.09854 16.319 6.38973 13.6102C3.68092 10.9014 3.27849 8.201 3.33877 6.61089C3.37458 5.66631 3.91732 4.81184 4.61482 4.11434C5.77561 2.95355 7.62762 3.10951 8.36464 4.43012Z" stroke="white" stroke-width="1.5" stroke-linecap="round"/>
</svg>
