<svg width="21" height="21" viewBox="0 0 21 21" fill="none" xmlns="http://www.w3.org/2000/svg">
<path d="M11 16C7.625 16 6.12497 14.25 6.12497 13C6.12497 12.75 6.25003 12.375 6.50003 12.25C6.75003 12 7 12 7.25 12C8.625 12 8.25 14.125 11 14.125C12.375 14.125 13.125 13.25 13.125 12.5C13.125 12 12.875 11.5 12 11.25L9.00003 10.5C6.62503 9.875 6.25002 8.5 6.25002 7.375C6.25002 4.75 8.62503 3.875 10.875 3.875C12.875 3.875 15.375 5 15.375 6.5C15.375 7.125 14.875 7.5 14.125 7.5C12.875 7.5 13.125 5.75 10.625 5.75C9.37502 5.75 8.75002 6.375 8.75002 7.125C8.75002 7.875 9.74997 8.25 10.5 8.375L12.75 8.875C15.125 9.375 15.75 10.875 15.75 12.125C15.75 14.5 14.125 16 11 16ZM20.25 11.625C20.375 11.125 20.375 10.5 20.375 10C20.375 7.25 19.125 4.625 17 2.75C14.875 0.875 12 0.25 9.24997 0.625C8.49997 0.25 7.50003 0 6.50003 0C4.50003 0 2.625 1.125 1.625 2.875C0.625 4.625 0.625 6.75 1.625 8.5C1.125 11.5 1.99997 14.625 4.24997 16.875C6.37497 19 9.50002 20 12.5 19.5C13.375 20 14.25 20.25 15.25 20.25C17.25 20.25 19.125 19.125 20.125 17.375C21.125 15.5 21.25 13.375 20.25 11.625Z" fill="white"/>
</svg>
