<svg width="22" height="22" viewBox="0 0 22 22" fill="none" xmlns="http://www.w3.org/2000/svg">
<path d="M8.25 13.75L13.75 8.25M13.75 8.25H9.625M13.75 8.25V12.375" stroke="white" stroke-width="1.5" stroke-linecap="round" stroke-linejoin="round"/>
<path d="M1.83325 11C1.83325 6.6788 1.83325 4.5182 3.17568 3.17577C4.51811 1.83334 6.67871 1.83334 10.9999 1.83334C15.3211 1.83334 17.4817 1.83334 18.8242 3.17577C20.1666 4.5182 20.1666 6.6788 20.1666 11C20.1666 15.3212 20.1666 17.4818 18.8242 18.8242C17.4817 20.1667 15.3211 20.1667 10.9999 20.1667C6.67871 20.1667 4.51811 20.1667 3.17568 18.8242C1.83325 17.4818 1.83325 15.3212 1.83325 11Z" stroke="white" stroke-width="1.5"/>
</svg>
