<svg width="20" height="20" viewBox="0 0 20 20" fill="none" xmlns="http://www.w3.org/2000/svg">
<path fill-rule="evenodd" clip-rule="evenodd" d="M8.2833 2.70831H11.7167C13.2511 2.7083 14.4663 2.70829 15.4172 2.83591C16.3957 2.96722 17.1876 3.24384 17.8121 3.86727C18.7406 4.79406 18.9121 6.10625 18.958 7.89601C18.9737 8.50956 18.4883 8.88616 18.0825 8.99228C17.6334 9.10974 17.304 9.51784 17.304 9.99998C17.304 10.4821 17.6334 10.8902 18.0825 11.0077C18.4883 11.1138 18.9737 11.4904 18.958 12.1039C18.9121 13.8937 18.7406 15.2059 17.8121 16.1327C17.1876 16.7561 16.3957 17.0327 15.4172 17.1641C14.4663 17.2917 13.2511 17.2917 11.7167 17.2916H8.2833C6.74887 17.2917 5.53372 17.2917 4.58278 17.1641C3.60429 17.0327 2.81241 16.7561 2.18783 16.1327C1.25933 15.2059 1.08783 13.8937 1.042 12.104C1.02628 11.4904 1.51171 11.1138 1.91749 11.0077C2.36662 10.8902 2.696 10.4821 2.696 9.99998C2.696 9.51784 2.36662 9.10974 1.9175 8.99228C1.51171 8.88616 1.02628 8.50956 1.042 7.89601C1.08783 6.10625 1.25933 4.79406 2.18783 3.86727C2.81241 3.24384 3.60429 2.96722 4.58278 2.83591C5.53372 2.70829 6.74887 2.7083 8.2833 2.70831ZM4.74903 4.0748C3.90874 4.18757 3.42443 4.39909 3.0709 4.75197C2.54771 5.2742 2.34784 6.0647 2.29517 7.79994C3.24806 8.07779 3.946 8.95621 3.946 9.99998C3.946 11.0437 3.24806 11.9222 2.29517 12.2C2.34784 13.9353 2.54771 14.7258 3.0709 15.248C3.42443 15.6009 3.90874 15.8124 4.74903 15.9252C5.60719 16.0403 6.73835 16.0416 8.33024 16.0416H11.6697C13.2616 16.0416 14.3928 16.0403 15.2509 15.9252C16.0912 15.8124 16.5756 15.6009 16.9291 15.248C17.4523 14.7258 17.6521 13.9353 17.7048 12.2C16.7519 11.9222 16.054 11.0437 16.054 9.99998C16.054 8.95621 16.7519 8.07779 17.7048 7.79994C17.6521 6.0647 17.4523 5.2742 16.9291 4.75197C16.5756 4.39909 16.0912 4.18757 15.2509 4.0748C14.3928 3.95964 13.2616 3.95831 11.6697 3.95831H8.33024C6.73835 3.95831 5.60719 3.95964 4.74903 4.0748ZM9.99999 8.36205C9.95154 8.44593 9.89767 8.54251 9.83419 8.65639L9.75227 8.80335C9.74648 8.81373 9.74029 8.82506 9.73365 8.8372C9.66821 8.95687 9.55984 9.15506 9.37913 9.29224C9.19465 9.43228 8.97274 9.48047 8.84298 9.50865C8.82998 9.51147 8.81791 9.51409 8.80689 9.51658L8.6478 9.55258C8.50183 9.58561 8.38291 9.61256 8.28124 9.63811C8.34737 9.71952 8.43328 9.8206 8.54501 9.95126L8.65347 10.0781C8.66117 10.0871 8.66953 10.0967 8.67844 10.107C8.76839 10.2106 8.91361 10.3779 8.98077 10.5938C9.04713 10.8072 9.02424 11.027 9.0098 11.1657C9.00835 11.1795 9.007 11.1925 9.00582 11.2047L8.98943 11.3739C8.97422 11.5307 8.9624 11.656 8.95453 11.7578C9.04137 11.7195 9.14015 11.6741 9.25751 11.6201L9.40647 11.5515C9.41672 11.5468 9.42796 11.5415 9.44011 11.5357C9.55969 11.4793 9.76777 11.3812 9.99999 11.3812C10.2322 11.3812 10.4403 11.4793 10.5599 11.5357C10.572 11.5415 10.5833 11.5468 10.5935 11.5515L10.7425 11.6201C10.8598 11.6741 10.9586 11.7195 11.0454 11.7578C11.0376 11.656 11.0258 11.5307 11.0106 11.3739L10.9942 11.2047C10.993 11.1925 10.9916 11.1795 10.9902 11.1657C10.9757 11.027 10.9529 10.8072 11.0192 10.5938C11.0864 10.3779 11.2316 10.2106 11.3215 10.107C11.3304 10.0967 11.3388 10.0871 11.3465 10.0781L11.455 9.95126C11.5667 9.8206 11.6526 9.71952 11.7187 9.63811C11.6171 9.61256 11.4982 9.58561 11.3522 9.55258L11.1931 9.51658C11.1821 9.51409 11.17 9.51147 11.157 9.50865C11.0272 9.48047 10.8053 9.43228 10.6209 9.29224C10.4401 9.15506 10.3318 8.95688 10.2663 8.8372C10.2597 8.82506 10.2535 8.81373 10.2477 8.80335L10.1658 8.65639C10.1023 8.54251 10.0484 8.44593 9.99999 8.36205ZM9.1779 7.33301C9.32138 7.14565 9.58191 6.87498 9.99999 6.87498C10.4181 6.87498 10.6786 7.14565 10.8221 7.33301C10.959 7.51182 11.0969 7.75935 11.2383 8.01312C11.2447 8.02465 11.2512 8.0362 11.2576 8.04776L11.3395 8.19472C11.3585 8.22881 11.3735 8.25562 11.3866 8.27856C11.4093 8.28391 11.4358 8.28991 11.4689 8.2974L11.628 8.3334C11.6411 8.33634 11.6541 8.33929 11.6671 8.34223C11.9403 8.40396 12.2118 8.46531 12.4202 8.54744C12.6503 8.63812 12.9622 8.81473 13.0824 9.20132C13.2005 9.5811 13.0515 9.90278 12.9214 10.1095C12.8009 10.3009 12.6178 10.5149 12.4304 10.7339C12.4219 10.7438 12.4134 10.7537 12.405 10.7637L12.2965 10.8905C12.2678 10.9241 12.2461 10.9494 12.2279 10.9714C12.2304 11.0016 12.2338 11.0369 12.2383 11.0841L12.2547 11.2533C12.256 11.2662 12.2572 11.2791 12.2585 11.292C12.287 11.5852 12.3145 11.8687 12.3044 12.0954C12.2938 12.3331 12.2367 12.6929 11.9141 12.9378C11.5813 13.1905 11.2137 13.1354 10.9806 13.0687C10.7658 13.0071 10.512 12.8902 10.2564 12.7724C10.2442 12.7668 10.2319 12.7611 10.2197 12.7555L10.0707 12.6869C10.0429 12.6741 10.0199 12.6635 9.99999 12.6545C9.98003 12.6635 9.95713 12.6741 9.92926 12.6869L9.7803 12.7555C9.76806 12.7611 9.75581 12.7668 9.74358 12.7724C9.48797 12.8902 9.23419 13.0071 9.0194 13.0687C8.7863 13.1354 8.41872 13.1905 8.08587 12.9378C7.76324 12.6929 7.70618 12.3331 7.6956 12.0954C7.6855 11.8687 7.71302 11.5852 7.7415 11.292C7.74275 11.2791 7.744 11.2662 7.74525 11.2533L7.76165 11.0841C7.76622 11.0369 7.76962 11.0016 7.77211 10.9714C7.75387 10.9494 7.73221 10.9241 7.70347 10.8905L7.59501 10.7637C7.58653 10.7537 7.57805 10.7438 7.56958 10.7339C7.38215 10.5149 7.19908 10.3009 7.07862 10.1095C6.94847 9.90278 6.79944 9.5811 6.91754 9.20132C7.03775 8.81473 7.34967 8.63812 7.57979 8.54744C7.7882 8.46531 8.05969 8.40396 8.33287 8.34223C8.34589 8.33929 8.35892 8.33634 8.37195 8.3334L8.53104 8.2974C8.56414 8.28991 8.59063 8.28391 8.61341 8.27856C8.62649 8.25562 8.64145 8.22881 8.66045 8.19472L8.74237 8.04776C8.74881 8.0362 8.75525 8.02465 8.76168 8.01311C8.90306 7.75935 9.04097 7.51182 9.1779 7.33301Z" fill="white"/>
</svg>
