<svg width="51" height="51" viewBox="0 0 51 51" fill="none" xmlns="http://www.w3.org/2000/svg">
<path d="M33.9883 5.46027C34.3841 5.46051 34.6699 5.82411 34.6699 6.22491C34.6698 6.6256 34.384 6.98834 33.9883 6.98859C31.032 6.98859 28.356 9.27279 27.5039 12.5755L27.5049 12.5765C27.4144 12.9294 27.1007 13.1746 26.7578 13.1204L26.752 13.1302L26.6484 13.095C26.2796 12.9678 26.0949 12.5383 26.1943 12.1526C27.1855 8.30799 30.281 5.46027 33.9883 5.46027Z" fill="#483EA8" stroke="#F9FFF9" stroke-width="0.3"/>
<path d="M41.4342 36.311H38.2428C37.9491 36.311 37.7109 36.0361 37.7109 35.697C37.7109 35.358 37.9491 35.083 38.2428 35.083H41.4342C45.8335 35.083 49.4129 30.9512 49.4129 25.873C49.4129 20.7948 45.8335 16.663 41.4342 16.663H41.3575C41.2032 16.663 41.0566 16.5858 40.9555 16.4511C40.8545 16.3165 40.8089 16.138 40.8309 15.9617C40.8784 15.5793 40.9023 15.1951 40.9023 14.821C40.9023 10.4199 37.8001 6.83891 33.9874 6.83891C32.5041 6.83891 31.0896 7.37397 29.8966 8.38662C29.6344 8.60898 29.2621 8.5103 29.1105 8.17742C25.7317 0.750656 16.9067 -0.246683 12.3314 6.21395C10.404 8.93572 9.64672 12.4763 10.2536 15.9271C10.3204 16.3082 10.0678 16.6634 9.73228 16.6634H9.51913C5.11987 16.6634 1.54044 20.7953 1.54044 25.8735C1.54044 30.9517 5.11987 35.0835 9.51913 35.0835H12.7106C13.0043 35.0835 13.2425 35.3585 13.2425 35.6975C13.2425 36.0365 13.0043 36.3115 12.7106 36.3115H9.51913C4.53317 36.3115 0.476562 31.6289 0.476562 25.8734C0.476562 20.2794 4.30858 15.699 9.10158 15.4463C8.65135 11.8662 9.51229 8.25502 11.5077 5.43681C16.4062 -1.48079 25.7939 -0.705415 29.7623 7.00821C31.0283 6.09202 32.4769 5.6114 33.9872 5.6114C38.6065 5.6114 42.2669 10.1498 41.9466 15.4521C46.6954 15.7595 50.4766 20.3158 50.4766 25.873C50.4766 31.6289 46.42 36.3111 41.434 36.3111L41.4342 36.311Z" fill="#1C274C"/>
<path d="M25.4053 19.8497C32.8402 19.8497 38.8535 26.8246 38.8535 35.3507C38.8533 43.8765 32.8401 50.8507 25.4053 50.8507C17.9706 50.8506 11.9572 43.8766 11.957 35.3507C11.957 26.8247 17.9704 19.8498 25.4053 19.8497ZM25.4053 21.378C18.7619 21.3781 13.3213 27.6259 13.3213 35.3507C13.3215 43.0754 18.7621 49.3223 25.4053 49.3224C32.0485 49.3224 37.4891 43.0753 37.4893 35.3507C37.4893 27.6258 32.0486 21.378 25.4053 21.378Z" fill="#1C274C" stroke="#F9FFF9" stroke-width="0.3"/>
<path d="M25.6484 29.2421C25.9656 29.2422 26.1874 29.5318 26.1875 29.8417V41.5292C26.1875 41.8396 25.9656 42.1286 25.6484 42.1288C25.3311 42.1288 25.1084 41.8393 25.1084 41.5292V29.8417C25.1085 29.5317 25.3312 29.2421 25.6484 29.2421Z" fill="#1C274C" stroke="#483EA8" stroke-width="0.3"/>
<path d="M25.2607 29.4267C25.4725 29.1822 25.8263 29.1824 26.0381 29.4267L29.1533 33.0234C29.3542 33.2554 29.3543 33.6234 29.1533 33.8554C29.05 33.9749 28.9094 34.039 28.7646 34.039C28.6196 34.039 28.479 33.9743 28.376 33.8554L25.6494 30.707L22.9229 33.8554C22.7111 34.1001 22.3574 34.0998 22.1455 33.8554C21.9445 33.6234 21.9445 33.2554 22.1455 33.0234L25.2607 29.4267Z" fill="#1C274C" stroke="#483EA8" stroke-width="0.3"/>
</svg>
