<svg width="20" height="20" viewBox="0 0 20 20" fill="none" xmlns="http://www.w3.org/2000/svg">
<path d="M12.5005 18.9582H7.50053C6.40053 18.9582 5.48386 18.8498 4.70886 18.6165C4.42553 18.5332 4.24219 18.2582 4.25886 17.9665C4.46719 15.4748 6.99219 13.5164 10.0005 13.5164C13.0088 13.5164 15.5255 15.4665 15.7422 17.9665C15.7672 18.2665 15.5838 18.5332 15.2922 18.6165C14.5172 18.8498 13.6005 18.9582 12.5005 18.9582ZM5.60053 17.5498C6.15053 17.6582 6.77553 17.7082 7.50053 17.7082H12.5005C13.2255 17.7082 13.8505 17.6582 14.4005 17.5498C13.9588 15.9498 12.1338 14.7664 10.0005 14.7664C7.86719 14.7664 6.04219 15.9498 5.60053 17.5498Z" fill="white"/>
<path d="M12.5 1.66669H7.50002C3.33335 1.66669 1.66669 3.33335 1.66669 7.50002V12.5C1.66669 15.65 2.61669 17.375 4.88335 18.0167C5.06669 15.85 7.29169 14.1417 10 14.1417C12.7084 14.1417 14.9334 15.85 15.1167 18.0167C17.3834 17.375 18.3334 15.65 18.3334 12.5V7.50002C18.3334 3.33335 16.6667 1.66669 12.5 1.66669ZM10 11.8084C8.35002 11.8084 7.01669 10.4667 7.01669 8.81669C7.01669 7.1667 8.35002 5.83335 10 5.83335C11.65 5.83335 12.9834 7.1667 12.9834 8.81669C12.9834 10.4667 11.65 11.8084 10 11.8084Z" stroke="white" stroke-width="1.5" stroke-linecap="round" stroke-linejoin="round"/>
<path d="M9.99992 12.4333C8.00827 12.4333 6.3916 10.8083 6.3916 8.81665C6.3916 6.825 8.00827 5.20831 9.99992 5.20831C11.9916 5.20831 13.6083 6.825 13.6083 8.81665C13.6083 10.8083 11.9916 12.4333 9.99992 12.4333ZM9.99992 6.45831C8.69992 6.45831 7.6416 7.51666 7.6416 8.81665C7.6416 10.125 8.69992 11.1833 9.99992 11.1833C11.2999 11.1833 12.3583 10.125 12.3583 8.81665C12.3583 7.51666 11.2999 6.45831 9.99992 6.45831Z" fill="white"/>
</svg>
