<svg width="44" height="45" viewBox="0 0 44 45" fill="none" xmlns="http://www.w3.org/2000/svg">
<circle cx="22" cy="11.5" r="7.33333" fill="#0084FF"/>
<path fill-rule="evenodd" clip-rule="evenodd" d="M33 29.375C30.7218 29.375 28.875 31.2218 28.875 33.5C28.875 34.1368 29.0193 34.7399 29.277 35.2784L34.7784 29.777C34.2399 29.5193 33.6368 29.375 33 29.375ZM36.723 31.7215L31.2215 37.223C31.76 37.4807 32.3631 37.625 33 37.625C35.2782 37.625 37.125 35.7782 37.125 33.5C37.125 32.8632 36.9807 32.26 36.723 31.7215ZM26.125 33.5C26.125 29.703 29.203 26.625 33 26.625C36.797 26.625 39.875 29.703 39.875 33.5C39.875 37.297 36.797 40.375 33 40.375C29.203 40.375 26.125 37.297 26.125 33.5Z" fill="#0084FF"/>
<path d="M28.0988 25.2145C25.2709 26.891 23.375 29.9741 23.375 33.5C23.375 35.4603 23.961 37.2838 24.9675 38.8047C24.015 38.9336 23.0214 39.0017 22 39.0017C14.9123 39.0017 9.16663 35.7185 9.16663 31.6684C9.16663 27.6183 14.9123 24.3351 22 24.3351C24.2074 24.3351 26.2847 24.6536 28.0988 25.2145Z" fill="#0084FF"/>
</svg>
