<svg width="34" height="37" viewBox="0 0 34 37" fill="none" xmlns="http://www.w3.org/2000/svg">
<path d="M21.76 7.7C21.76 11.6764 18.5126 14.9 14.5067 14.9C10.5008 14.9 7.25333 11.6764 7.25333 7.7C7.25333 3.72355 10.5008 0.5 14.5067 0.5C18.5126 0.5 21.76 3.72355 21.76 7.7Z" fill="#0084FF"/>
<path d="M29.0133 28.4C29.0133 32.8735 29.0133 36.5 14.5067 36.5C0 36.5 0 32.8735 0 28.4C0 23.9265 6.49485 20.3 14.5067 20.3C22.5185 20.3 29.0133 23.9265 29.0133 28.4Z" fill="#0084FF"/>
<path d="M33.6565 13.0969C34.1555 12.5396 34.1049 11.6863 33.5435 11.191C32.9821 10.6957 32.1225 10.7459 31.6235 11.3031L27.6971 15.6879L26.2964 14.4366C25.7382 13.9378 24.8782 13.9827 24.3758 14.5369C23.8733 15.0911 23.9186 15.9447 24.4769 16.4434L26.8946 18.6034C27.1638 18.8439 27.5185 18.9679 27.8801 18.9479C28.2417 18.9279 28.5803 18.7656 28.8209 18.4969L33.6565 13.0969Z" fill="#0084FF"/>
</svg>
